<?xml version="1.0" encoding="UTF-8" standalone="no"?>
<svg
   width="296.96094pt"
   height="299.44922pt"
   viewBox="0 0 296.96094 299.44922"
   version="1.1"
   id="svg157"
   sodipodi:docname="347_temp.pdf"
   xmlns:inkscape="http://www.inkscape.org/namespaces/inkscape"
   xmlns:sodipodi="http://sodipodi.sourceforge.net/DTD/sodipodi-0.dtd"
   xmlns:xlink="http://www.w3.org/1999/xlink"
   xmlns="http://www.w3.org/2000/svg"
   xmlns:svg="http://www.w3.org/2000/svg">
  <sodipodi:namedview
     id="namedview157"
     pagecolor="#ffffff"
     bordercolor="#000000"
     borderopacity="0.25"
     inkscape:showpageshadow="2"
     inkscape:pageopacity="0.0"
     inkscape:pagecheckerboard="0"
     inkscape:deskcolor="#d1d1d1"
     inkscape:document-units="pt" />
  <defs
     id="defs9">
    <g
       id="g7">
      <g
         id="glyph-0-0">
        <path
           d="m 14.796875,-19.609375 c -0.324219,0.554687 -0.714844,1.246094 -1.171875,2.078125 -0.449219,0.824219 -0.929688,1.757812 -1.4375,2.796875 -0.511719,1.03125 -1.03125,2.148437 -1.5625,3.34375 -0.523438,1.1875 -1.011719,2.417969 -1.46875,3.6875 C 8.695312,-6.429688 8.289062,-5.144531 7.9375,-3.84375 7.59375,-2.539062 7.34375,-1.257812 7.1875,0 H 4.609375 c 0.175781,-1.25 0.445313,-2.523438 0.8125,-3.828125 0.375,-1.300781 0.789063,-2.578125 1.25,-3.828125 0.46875,-1.257812 0.957031,-2.46875 1.46875,-3.625 0.519531,-1.164062 1.023437,-2.238281 1.515625,-3.21875 0.488281,-0.976562 0.9375,-1.835938 1.34375,-2.578125 0.40625,-0.75 0.726562,-1.335937 0.96875,-1.765625 H 1.4375 V -21 h 13.359375 z m 0,0"
           id="path1" />
      </g>
      <g
         id="glyph-0-1">
        <path
           d="m 14.96875,-6.671875 c 0,1.03125 -0.167969,1.980469 -0.5,2.84375 -0.335938,0.855469 -0.792969,1.59375 -1.375,2.21875 C 12.507812,-0.984375 11.8125,-0.5 11,-0.15625 10.1875,0.1875 9.304688,0.359375 8.359375,0.359375 7.304688,0.359375 6.363281,0.140625 5.53125,-0.296875 4.695312,-0.734375 3.988281,-1.363281 3.40625,-2.1875 2.820312,-3.007812 2.378906,-4.015625 2.078125,-5.203125 1.773438,-6.398438 1.625,-7.75 1.625,-9.25 c 0,-1.820312 0.203125,-3.476562 0.609375,-4.96875 0.40625,-1.488281 0.976563,-2.757812 1.71875,-3.8125 0.75,-1.0625 1.648437,-1.878906 2.703125,-2.453125 1.0625,-0.582031 2.242188,-0.875 3.546875,-0.875 1.4375,0 2.597656,0.203125 3.484375,0.609375 v 2.265625 c -1.085938,-0.5625 -2.230469,-0.84375 -3.4375,-0.84375 -0.9375,0 -1.78125,0.214844 -2.53125,0.640625 -0.75,0.417969 -1.398438,1.011719 -1.9375,1.78125 -0.53125,0.761719 -0.945312,1.683594 -1.234375,2.765625 -0.292969,1.085937 -0.4375,2.292969 -0.4375,3.625 h 0.0625 c 0.96875,-1.75 2.566406,-2.625 4.796875,-2.625 0.914062,0 1.738281,0.15625 2.46875,0.46875 0.738281,0.3125 1.367188,0.757813 1.890625,1.328125 0.53125,0.574219 0.9375,1.257812 1.21875,2.046875 0.28125,0.792969 0.421875,1.667969 0.421875,2.625 z m -2.453125,0.3125 c 0,-0.726563 -0.09375,-1.382813 -0.28125,-1.96875 -0.1875,-0.59375 -0.460937,-1.09375 -0.8125,-1.5 -0.34375,-0.40625 -0.773437,-0.71875 -1.28125,-0.9375 -0.5,-0.226563 -1.074219,-0.34375 -1.71875,-0.34375 -0.59375,0 -1.148437,0.117187 -1.65625,0.34375 C 6.253906,-10.546875 5.8125,-10.238281 5.4375,-9.84375 5.070312,-9.457031 4.785156,-9.007812 4.578125,-8.5 c -0.210937,0.511719 -0.3125,1.054688 -0.3125,1.625 0,0.730469 0.097656,1.414062 0.296875,2.046875 0.207031,0.625 0.492188,1.171875 0.859375,1.640625 0.375,0.46875 0.816406,0.839844 1.328125,1.109375 0.519531,0.261719 1.09375,0.390625 1.71875,0.390625 0.601562,0 1.15625,-0.113281 1.65625,-0.34375 0.5,-0.226562 0.921875,-0.546875 1.265625,-0.953125 0.351563,-0.414063 0.628906,-0.90625 0.828125,-1.46875 0.195312,-0.570313 0.296875,-1.207031 0.296875,-1.90625 z m 0,0"
           id="path2" />
      </g>
      <g
         id="glyph-0-2">
        <path
           d="m 11.3125,-15.5 c 0,-0.644531 -0.105469,-1.207031 -0.3125,-1.6875 -0.199219,-0.476562 -0.46875,-0.875 -0.8125,-1.1875 -0.34375,-0.320312 -0.75,-0.5625 -1.21875,-0.71875 C 8.5,-19.25 7.988281,-19.328125 7.4375,-19.328125 c -0.46875,0 -0.929688,0.07031 -1.375,0.203125 -0.449219,0.125 -0.886719,0.304688 -1.3125,0.53125 -0.429688,0.21875 -0.839844,0.484375 -1.234375,0.796875 -0.386719,0.3125 -0.75,0.65625 -1.09375,1.03125 v -2.578125 c 0.664063,-0.644531 1.414063,-1.140625 2.25,-1.484375 0.84375,-0.351563 1.863281,-0.53125 3.0625,-0.53125 0.863281,0 1.660156,0.125 2.390625,0.375 0.726562,0.25 1.359375,0.617187 1.890625,1.09375 0.539063,0.480469 0.960937,1.074219 1.265625,1.78125 0.3125,0.699219 0.46875,1.5 0.46875,2.40625 0,0.835937 -0.09375,1.589844 -0.28125,2.265625 -0.1875,0.667969 -0.476562,1.296875 -0.859375,1.890625 -0.386719,0.59375 -0.875,1.167969 -1.46875,1.71875 -0.585937,0.542969 -1.273437,1.101563 -2.0625,1.671875 -0.980469,0.699219 -1.792969,1.296875 -2.4375,1.796875 -0.636719,0.5 -1.140625,0.96875 -1.515625,1.40625 -0.375,0.429687 -0.640625,0.859375 -0.796875,1.296875 -0.148437,0.4375 -0.21875,0.9375 -0.21875,1.5 H 14.5625 V 0 H 1.59375 v -1.046875 c 0,-0.894531 0.097656,-1.679687 0.296875,-2.359375 0.195313,-0.6875 0.519531,-1.335938 0.96875,-1.953125 0.445313,-0.613281 1.035156,-1.226563 1.765625,-1.84375 0.726562,-0.613281 1.617188,-1.304687 2.671875,-2.078125 0.757813,-0.550781 1.394531,-1.078125 1.90625,-1.578125 0.507813,-0.5 0.921875,-0.992187 1.234375,-1.484375 0.3125,-0.5 0.535156,-1.003906 0.671875,-1.515625 C 11.242188,-14.378906 11.3125,-14.925781 11.3125,-15.5 Z m 0,0"
           id="path3" />
      </g>
      <g
         id="glyph-0-3">
        <path
           d="m 10.609375,0 h -2.40625 v -18.15625 c -0.1875,0.1875 -0.460937,0.402344 -0.8125,0.640625 -0.355469,0.242187 -0.757813,0.480469 -1.203125,0.71875 -0.449219,0.230469 -0.917969,0.449219 -1.40625,0.65625 -0.492188,0.210937 -0.96875,0.371094 -1.4375,0.484375 v -2.4375 c 0.519531,-0.144531 1.078125,-0.34375 1.671875,-0.59375 0.59375,-0.25 1.175781,-0.523438 1.75,-0.828125 0.570313,-0.3125 1.109375,-0.632813 1.609375,-0.96875 0.507812,-0.332031 0.953125,-0.660156 1.328125,-0.984375 h 0.90625 z m 0,0"
           id="path4" />
      </g>
      <g
         id="glyph-0-4">
        <path
           d="m 14.1875,-6.421875 c 0,1.03125 -0.179688,1.964844 -0.53125,2.796875 -0.34375,0.824219 -0.84375,1.539062 -1.5,2.140625 -0.648438,0.59375 -1.429688,1.054687 -2.34375,1.375 -0.917969,0.3125 -1.9375,0.46875 -3.0625,0.46875 -1.949219,0 -3.398438,-0.2929688 -4.34375,-0.875 V -3.0625 c 1.425781,0.917969 2.882812,1.375 4.375,1.375 0.757812,0 1.441406,-0.109375 2.046875,-0.328125 0.613281,-0.226563 1.132813,-0.539063 1.5625,-0.9375 0.4375,-0.40625 0.769531,-0.890625 1,-1.453125 0.226563,-0.570312 0.34375,-1.191406 0.34375,-1.859375 0,-1.375 -0.460937,-2.445313 -1.375,-3.21875 -0.917969,-0.78125 -2.25,-1.171875 -4,-1.171875 -0.28125,0 -0.578125,0.0078 -0.890625,0.01563 -0.3125,0.01172 -0.625,0.02734 -0.9375,0.04687 -0.3125,0.01172 -0.621094,0.02734 -0.921875,0.04687 -0.292969,0.02344 -0.5625,0.04687 -0.8125,0.07813 L 3.515625,-21 h 9.71875 v 2.15625 H 5.59375 l -0.421875,6.171875 c 0.3125,-0.01953 0.640625,-0.03516 0.984375,-0.04687 0.351562,-0.01953 0.671875,-0.03125 0.953125,-0.03125 1.113281,0 2.109375,0.152344 2.984375,0.453125 0.875,0.292969 1.617188,0.710937 2.234375,1.25 0.613281,0.542969 1.078125,1.210937 1.390625,2 0.3125,0.78125 0.46875,1.65625 0.46875,2.625 z m 0,0"
           id="path5" />
      </g>
      <g
         id="glyph-0-5">
        <path
           d="m 13.953125,-5.953125 c 0,0.949219 -0.179687,1.8125 -0.53125,2.59375 -0.355469,0.773437 -0.859375,1.433594 -1.515625,1.984375 -0.648438,0.554688 -1.421875,0.980469 -2.328125,1.28125 -0.90625,0.300781 -1.90625,0.453125 -3,0.453125 -2,0 -3.59375,-0.3789062 -4.78125,-1.140625 v -2.578125 c 1.414063,1.117187 3.039063,1.671875 4.875,1.671875 0.726563,0 1.382813,-0.085938 1.96875,-0.265625 0.59375,-0.1875 1.101563,-0.457031 1.53125,-0.8125 0.425781,-0.351563 0.753906,-0.78125 0.984375,-1.28125 0.226562,-0.5 0.34375,-1.0625 0.34375,-1.6875 0,-2.738281 -1.953125,-4.109375 -5.859375,-4.109375 h -1.75 V -11.875 h 1.65625 c 3.457031,0 5.1875,-1.289062 5.1875,-3.875 0,-2.382812 -1.320313,-3.578125 -3.953125,-3.578125 -1.480469,0 -2.871094,0.5 -4.171875,1.5 v -2.328125 c 1.332031,-0.800781 2.925781,-1.203125 4.78125,-1.203125 0.875,0 1.664063,0.125 2.375,0.375 0.71875,0.242187 1.328125,0.578125 1.828125,1.015625 0.507812,0.4375 0.90625,0.964844 1.1875,1.578125 0.28125,0.617187 0.421875,1.296875 0.421875,2.046875 0,2.761719 -1.398437,4.539062 -4.1875,5.328125 v 0.0625 c 0.707031,0.07422 1.363281,0.246094 1.96875,0.515625 0.601563,0.273438 1.125,0.621094 1.5625,1.046875 0.445313,0.429687 0.789063,0.933594 1.03125,1.515625 0.25,0.585938 0.375,1.226562 0.375,1.921875 z m 0,0"
           id="path6" />
      </g>
      <g
         id="glyph-0-6">
        <path
           d="m 12.453125,-21 v 13.859375 h 2.6875 V -4.9375 h -2.6875 V 0 h -2.375 v -4.9375 h -9.875 v -2.078125 c 0.914063,-1.03125 1.84375,-2.132813 2.78125,-3.3125 0.9375,-1.175781 1.832031,-2.367187 2.6875,-3.578125 0.851563,-1.21875 1.644531,-2.425781 2.375,-3.625 0.726563,-1.207031 1.34375,-2.363281 1.84375,-3.46875 z m -9.53125,13.859375 h 7.15625 v -10.28125 c -0.730469,1.28125 -1.421875,2.429687 -2.078125,3.4375 -0.65625,1 -1.28125,1.914063 -1.875,2.734375 -0.585938,0.824219 -1.148438,1.570312 -1.6875,2.234375 -0.53125,0.65625 -1.039062,1.28125 -1.515625,1.875 z m 0,0"
           id="path7" />
      </g>
    </g>
    <clipPath
       id="clip-0">
      <path
         clip-rule="nonzero"
         d="M 157.57812,245.78125 H 161 V 546 h -3.42188 z m 0,0"
         id="path8" />
    </clipPath>
    <clipPath
       id="clip-1">
      <path
         clip-rule="nonzero"
         d="M 160,245.78125 H 455 V 249 H 160 Z m 0,0"
         id="path9" />
    </clipPath>
  </defs>
  <g
     fill="#000000"
     fill-opacity="1"
     id="g9"
     transform="translate(-157.57812,-245.78125)">
    <use
       xlink:href="#glyph-0-0"
       x="172.34"
       y="279.64999"
       id="use9" />
  </g>
  <g
     fill="#000000"
     fill-opacity="1"
     id="g10"
     transform="translate(-157.57812,-245.78125)">
    <use
       xlink:href="#glyph-0-1"
       x="214.37"
       y="279.64999"
       id="use10" />
  </g>
  <g
     fill="#000000"
     fill-opacity="1"
     id="g11"
     transform="translate(-157.57812,-245.78125)">
    <use
       xlink:href="#glyph-0-2"
       x="256.37"
       y="279.64999"
       id="use11" />
  </g>
  <g
     fill="#000000"
     fill-opacity="1"
     id="g12"
     transform="translate(-157.57812,-245.78125)">
    <use
       xlink:href="#glyph-0-3"
       x="298.37"
       y="279.64999"
       id="use12" />
  </g>
  <g
     fill="#000000"
     fill-opacity="1"
     id="g13"
     transform="translate(-157.57812,-245.78125)">
    <use
       xlink:href="#glyph-0-4"
       x="340.39001"
       y="279.64999"
       id="use13" />
  </g>
  <g
     fill="#000000"
     fill-opacity="1"
     id="g14"
     transform="translate(-157.57812,-245.78125)">
    <use
       xlink:href="#glyph-0-5"
       x="382.39001"
       y="279.64999"
       id="use14" />
  </g>
  <g
     fill="#000000"
     fill-opacity="1"
     id="g15"
     transform="translate(-157.57812,-245.78125)">
    <use
       xlink:href="#glyph-0-6"
       x="424.42001"
       y="279.64999"
       id="use15" />
  </g>
  <g
     fill="#000000"
     fill-opacity="1"
     id="g16"
     transform="translate(-157.57812,-245.78125)">
    <use
       xlink:href="#glyph-0-4"
       x="172.34"
       y="322.01001"
       id="use16" />
  </g>
  <g
     fill="#000000"
     fill-opacity="1"
     id="g17"
     transform="translate(-157.57812,-245.78125)">
    <use
       xlink:href="#glyph-0-6"
       x="214.37"
       y="322.01001"
       id="use17" />
  </g>
  <g
     fill="#000000"
     fill-opacity="1"
     id="g18"
     transform="translate(-157.57812,-245.78125)">
    <use
       xlink:href="#glyph-0-3"
       x="256.37"
       y="322.01001"
       id="use18" />
  </g>
  <g
     fill="#000000"
     fill-opacity="1"
     id="g19"
     transform="translate(-157.57812,-245.78125)">
    <use
       xlink:href="#glyph-0-5"
       x="298.37"
       y="322.01001"
       id="use19" />
  </g>
  <g
     fill="#000000"
     fill-opacity="1"
     id="g20"
     transform="translate(-157.57812,-245.78125)">
    <use
       xlink:href="#glyph-0-2"
       x="340.39001"
       y="322.01001"
       id="use20" />
  </g>
  <g
     fill="#000000"
     fill-opacity="1"
     id="g21"
     transform="translate(-157.57812,-245.78125)">
    <use
       xlink:href="#glyph-0-1"
       x="382.39001"
       y="322.01001"
       id="use21" />
  </g>
  <g
     fill="#000000"
     fill-opacity="1"
     id="g22"
     transform="translate(-157.57812,-245.78125)">
    <use
       xlink:href="#glyph-0-0"
       x="424.42001"
       y="322.01001"
       id="use22" />
  </g>
  <g
     fill="#000000"
     fill-opacity="1"
     id="g23"
     transform="translate(-157.57812,-245.78125)">
    <use
       xlink:href="#glyph-0-5"
       x="172.34"
       y="364.37"
       id="use23" />
  </g>
  <g
     fill="#000000"
     fill-opacity="1"
     id="g24"
     transform="translate(-157.57812,-245.78125)">
    <use
       xlink:href="#glyph-0-4"
       x="214.37"
       y="364.37"
       id="use24" />
  </g>
  <g
     fill="#000000"
     fill-opacity="1"
     id="g25"
     transform="translate(-157.57812,-245.78125)">
    <use
       xlink:href="#glyph-0-6"
       x="256.37"
       y="364.37"
       id="use25" />
  </g>
  <g
     fill="#000000"
     fill-opacity="1"
     id="g26"
     transform="translate(-157.57812,-245.78125)">
    <use
       xlink:href="#glyph-0-2"
       x="298.37"
       y="364.37"
       id="use26" />
  </g>
  <g
     fill="#000000"
     fill-opacity="1"
     id="g27"
     transform="translate(-157.57812,-245.78125)">
    <use
       xlink:href="#glyph-0-1"
       x="340.39001"
       y="364.37"
       id="use27" />
  </g>
  <g
     fill="#000000"
     fill-opacity="1"
     id="g28"
     transform="translate(-157.57812,-245.78125)">
    <use
       xlink:href="#glyph-0-0"
       x="382.39001"
       y="364.37"
       id="use28" />
  </g>
  <g
     fill="#000000"
     fill-opacity="1"
     id="g29"
     transform="translate(-157.57812,-245.78125)">
    <use
       xlink:href="#glyph-0-3"
       x="424.42001"
       y="364.37"
       id="use29" />
  </g>
  <g
     fill="#000000"
     fill-opacity="1"
     id="g30"
     transform="translate(-157.57812,-245.78125)">
    <use
       xlink:href="#glyph-0-2"
       x="172.34"
       y="406.73001"
       id="use30" />
  </g>
  <g
     fill="#000000"
     fill-opacity="1"
     id="g31"
     transform="translate(-157.57812,-245.78125)">
    <use
       xlink:href="#glyph-0-3"
       x="214.37"
       y="406.73001"
       id="use31" />
  </g>
  <g
     fill="#000000"
     fill-opacity="1"
     id="g32"
     transform="translate(-157.57812,-245.78125)">
    <use
       xlink:href="#glyph-0-1"
       x="256.37"
       y="406.73001"
       id="use32" />
  </g>
  <g
     fill="#000000"
     fill-opacity="1"
     id="g33"
     transform="translate(-157.57812,-245.78125)">
    <use
       xlink:href="#glyph-0-0"
       x="298.37"
       y="406.73001"
       id="use33" />
  </g>
  <g
     fill="#000000"
     fill-opacity="1"
     id="g34"
     transform="translate(-157.57812,-245.78125)">
    <use
       xlink:href="#glyph-0-5"
       x="340.39001"
       y="406.73001"
       id="use34" />
  </g>
  <g
     fill="#000000"
     fill-opacity="1"
     id="g35"
     transform="translate(-157.57812,-245.78125)">
    <use
       xlink:href="#glyph-0-6"
       x="382.39001"
       y="406.73001"
       id="use35" />
  </g>
  <g
     fill="#000000"
     fill-opacity="1"
     id="g36"
     transform="translate(-157.57812,-245.78125)">
    <use
       xlink:href="#glyph-0-4"
       x="424.42001"
       y="406.73001"
       id="use36" />
  </g>
  <g
     fill="#000000"
     fill-opacity="1"
     id="g37"
     transform="translate(-157.57812,-245.78125)">
    <use
       xlink:href="#glyph-0-3"
       x="172.34"
       y="449.10999"
       id="use37" />
  </g>
  <g
     fill="#000000"
     fill-opacity="1"
     id="g38"
     transform="translate(-157.57812,-245.78125)">
    <use
       xlink:href="#glyph-0-5"
       x="214.37"
       y="449.10999"
       id="use38" />
  </g>
  <g
     fill="#000000"
     fill-opacity="1"
     id="g39"
     transform="translate(-157.57812,-245.78125)">
    <use
       xlink:href="#glyph-0-0"
       x="256.37"
       y="449.10999"
       id="use39" />
  </g>
  <g
     fill="#000000"
     fill-opacity="1"
     id="g40"
     transform="translate(-157.57812,-245.78125)">
    <use
       xlink:href="#glyph-0-1"
       x="298.37"
       y="449.10999"
       id="use40" />
  </g>
  <g
     fill="#000000"
     fill-opacity="1"
     id="g41"
     transform="translate(-157.57812,-245.78125)">
    <use
       xlink:href="#glyph-0-6"
       x="340.39001"
       y="449.10999"
       id="use41" />
  </g>
  <g
     fill="#000000"
     fill-opacity="1"
     id="g42"
     transform="translate(-157.57812,-245.78125)">
    <use
       xlink:href="#glyph-0-4"
       x="382.39001"
       y="449.10999"
       id="use42" />
  </g>
  <g
     fill="#000000"
     fill-opacity="1"
     id="g43"
     transform="translate(-157.57812,-245.78125)">
    <use
       xlink:href="#glyph-0-2"
       x="424.42001"
       y="449.10999"
       id="use43" />
  </g>
  <g
     fill="#000000"
     fill-opacity="1"
     id="g44"
     transform="translate(-157.57812,-245.78125)">
    <use
       xlink:href="#glyph-0-6"
       x="172.34"
       y="491.47"
       id="use44" />
  </g>
  <g
     fill="#000000"
     fill-opacity="1"
     id="g45"
     transform="translate(-157.57812,-245.78125)">
    <use
       xlink:href="#glyph-0-2"
       x="214.37"
       y="491.47"
       id="use45" />
  </g>
  <g
     fill="#000000"
     fill-opacity="1"
     id="g46"
     transform="translate(-157.57812,-245.78125)">
    <use
       xlink:href="#glyph-0-5"
       x="256.37"
       y="491.47"
       id="use46" />
  </g>
  <g
     fill="#000000"
     fill-opacity="1"
     id="g47"
     transform="translate(-157.57812,-245.78125)">
    <use
       xlink:href="#glyph-0-4"
       x="298.37"
       y="491.47"
       id="use47" />
  </g>
  <g
     fill="#000000"
     fill-opacity="1"
     id="g48"
     transform="translate(-157.57812,-245.78125)">
    <use
       xlink:href="#glyph-0-0"
       x="340.39001"
       y="491.47"
       id="use48" />
  </g>
  <g
     fill="#000000"
     fill-opacity="1"
     id="g49"
     transform="translate(-157.57812,-245.78125)">
    <use
       xlink:href="#glyph-0-3"
       x="382.39001"
       y="491.47"
       id="use49" />
  </g>
  <g
     fill="#000000"
     fill-opacity="1"
     id="g50"
     transform="translate(-157.57812,-245.78125)">
    <use
       xlink:href="#glyph-0-1"
       x="424.42001"
       y="491.47"
       id="use50" />
  </g>
  <g
     fill="#000000"
     fill-opacity="1"
     id="g51"
     transform="translate(-157.57812,-245.78125)">
    <use
       xlink:href="#glyph-0-1"
       x="172.34"
       y="533.83002"
       id="use51" />
  </g>
  <g
     fill="#000000"
     fill-opacity="1"
     id="g52"
     transform="translate(-157.57812,-245.78125)">
    <use
       xlink:href="#glyph-0-0"
       x="214.37"
       y="533.83002"
       id="use52" />
  </g>
  <g
     fill="#000000"
     fill-opacity="1"
     id="g53"
     transform="translate(-157.57812,-245.78125)">
    <use
       xlink:href="#glyph-0-4"
       x="256.37"
       y="533.83002"
       id="use53" />
  </g>
  <g
     fill="#000000"
     fill-opacity="1"
     id="g54"
     transform="translate(-157.57812,-245.78125)">
    <use
       xlink:href="#glyph-0-6"
       x="298.37"
       y="533.83002"
       id="use54" />
  </g>
  <g
     fill="#000000"
     fill-opacity="1"
     id="g55"
     transform="translate(-157.57812,-245.78125)">
    <use
       xlink:href="#glyph-0-3"
       x="340.39001"
       y="533.83002"
       id="use55" />
  </g>
  <g
     fill="#000000"
     fill-opacity="1"
     id="g56"
     transform="translate(-157.57812,-245.78125)">
    <use
       xlink:href="#glyph-0-2"
       x="382.39001"
       y="533.83002"
       id="use56" />
  </g>
  <g
     fill="#000000"
     fill-opacity="1"
     id="g57"
     transform="translate(-157.57812,-245.78125)">
    <use
       xlink:href="#glyph-0-5"
       x="424.42001"
       y="533.83002"
       id="use57" />
  </g>
  <path
     fill="none"
     stroke-width="0.14"
     stroke-linecap="square"
     stroke-linejoin="round"
     stroke="#000000"
     stroke-opacity="1"
     stroke-miterlimit="10"
     d="M 2.941405,43.41016 H 125.97265"
     id="path57" />
  <path
     fill-rule="evenodd"
     fill="#000000"
     fill-opacity="1"
     d="M 2.882815,44.30859 H 126.02343 V 43.34766 H 2.882815 Z m 0,0"
     id="path58" />
  <path
     fill-rule="evenodd"
     fill="#000000"
     fill-opacity="1"
     d="m 128.91015,45.26953 h 42.02734 v -2.87891 h -42.02734 z m 0,0"
     id="path59" />
  <path
     fill="none"
     stroke-width="0.14"
     stroke-linecap="square"
     stroke-linejoin="round"
     stroke="#000000"
     stroke-opacity="1"
     stroke-miterlimit="10"
     d="m 43.023435,2.9375 v 81.75"
     id="path60" />
  <path
     fill-rule="evenodd"
     fill="#000000"
     fill-opacity="1"
     d="m 42.960935,84.75 h 0.96094 V 2.88281 h -0.96094 z m 0,0"
     id="path61" />
  <path
     fill="none"
     stroke-width="0.14"
     stroke-linecap="square"
     stroke-linejoin="round"
     stroke="#000000"
     stroke-opacity="1"
     stroke-miterlimit="10"
     d="m 2.941405,85.76953 h 39"
     id="path62" />
  <path
     fill-rule="evenodd"
     fill="#000000"
     fill-opacity="1"
     d="m 2.882815,86.66797 h 39.11718 V 85.70703 H 2.882815 Z m 0,0"
     id="path63" />
  <path
     fill-rule="evenodd"
     fill="#000000"
     fill-opacity="1"
     d="M 44.882815,87.62891 H 128.90624 V 84.75 H 44.882815 Z m 0,0"
     id="path64" />
  <path
     fill="none"
     stroke-width="0.14"
     stroke-linecap="square"
     stroke-linejoin="round"
     stroke="#000000"
     stroke-opacity="1"
     stroke-miterlimit="10"
     d="M 169.07031,2.9375 V 42.32813"
     id="path65" />
  <path
     fill-rule="evenodd"
     fill="#000000"
     fill-opacity="1"
     d="m 169.01171,42.39062 h 0.96094 V 2.88281 h -0.96094 z m 0,0"
     id="path66" />
  <path
     fill="none"
     stroke-width="0.14"
     stroke-linecap="square"
     stroke-linejoin="round"
     stroke="#000000"
     stroke-opacity="1"
     stroke-miterlimit="10"
     d="m 128.97265,85.76953 h 39.01953"
     id="path67" />
  <path
     fill-rule="evenodd"
     fill="#000000"
     fill-opacity="1"
     d="m 128.91015,86.66797 h 39.14453 v -0.96094 h -39.14453 z m 0,0"
     id="path68" />
  <path
     fill-rule="evenodd"
     fill="#000000"
     fill-opacity="1"
     d="m 2.882815,129.98828 h 42 v -2.87891 h -42 z m 0,0"
     id="path69" />
  <path
     fill="none"
     stroke-width="0.14"
     stroke-linecap="square"
     stroke-linejoin="round"
     stroke="#000000"
     stroke-opacity="1"
     stroke-miterlimit="10"
     d="m 85.050785,2.9375 v 81.75"
     id="path70" />
  <path
     fill-rule="evenodd"
     fill="#000000"
     fill-opacity="1"
     d="m 84.992185,84.75 h 0.96094 V 2.88281 h -0.96094 z m 0,0"
     id="path71" />
  <path
     fill="none"
     stroke-width="0.14"
     stroke-linecap="square"
     stroke-linejoin="round"
     stroke="#000000"
     stroke-opacity="1"
     stroke-miterlimit="10"
     d="m 85.050785,87.6875 v 39.35938"
     id="path72" />
  <path
     fill-rule="evenodd"
     fill="#000000"
     fill-opacity="1"
     d="m 84.992185,127.10937 h 0.96094 V 87.62891 h -0.96094 z m 0,0"
     id="path73" />
  <path
     fill="none"
     stroke-width="0.14"
     stroke-linecap="square"
     stroke-linejoin="round"
     stroke="#000000"
     stroke-opacity="1"
     stroke-miterlimit="10"
     d="m 44.941405,128.12891 h 39.03125"
     id="path74" />
  <path
     fill-rule="evenodd"
     fill="#000000"
     fill-opacity="1"
     d="m 44.882815,129.02734 h 39.14453 v -0.95703 h -39.14453 z m 0,0"
     id="path75" />
  <path
     fill-rule="evenodd"
     fill="#000000"
     fill-opacity="1"
     d="m 126.03124,87.62891 h 2.87891 V 2.88281 h -2.87891 z m 0,0"
     id="path76" />
  <path
     fill-rule="evenodd"
     fill="#000000"
     fill-opacity="1"
     d="m 86.910155,129.98828 h 41.999995 v -2.87891 H 86.910155 Z m 0,0"
     id="path77" />
  <path
     fill-rule="evenodd"
     fill="#000000"
     fill-opacity="1"
     d="m 168.05078,87.62891 h 2.88281 V 45.26953 h -2.88281 z m 0,0"
     id="path78" />
  <path
     fill="none"
     stroke-width="0.14"
     stroke-linecap="square"
     stroke-linejoin="round"
     stroke="#000000"
     stroke-opacity="1"
     stroke-miterlimit="10"
     d="m 169.07031,87.6875 v 39.35938"
     id="path79" />
  <path
     fill-rule="evenodd"
     fill="#000000"
     fill-opacity="1"
     d="m 169.01171,127.10937 h 0.96094 V 87.62891 h -0.96094 z m 0,0"
     id="path80" />
  <path
     fill="none"
     stroke-width="0.14"
     stroke-linecap="square"
     stroke-linejoin="round"
     stroke="#000000"
     stroke-opacity="1"
     stroke-miterlimit="10"
     d="m 128.97265,128.12891 h 39.01953"
     id="path81" />
  <path
     fill-rule="evenodd"
     fill="#000000"
     fill-opacity="1"
     d="m 128.91015,129.02734 h 39.14453 v -0.95703 h -39.14453 z m 0,0"
     id="path82" />
  <path
     fill="none"
     stroke-width="0.14"
     stroke-linecap="square"
     stroke-linejoin="round"
     stroke="#000000"
     stroke-opacity="1"
     stroke-miterlimit="10"
     d="m 211.07031,2.9375 v 81.75"
     id="path83" />
  <path
     fill-rule="evenodd"
     fill="#000000"
     fill-opacity="1"
     d="m 211.01171,84.75 h 0.96094 V 2.88281 h -0.96094 z m 0,0"
     id="path84" />
  <path
     fill-rule="evenodd"
     fill="#000000"
     fill-opacity="1"
     d="m 170.93359,129.98828 h 42 v -2.87891 h -42 z m 0,0"
     id="path85" />
  <path
     fill="none"
     stroke-width="0.14"
     stroke-linecap="square"
     stroke-linejoin="round"
     stroke="#000000"
     stroke-opacity="1"
     stroke-miterlimit="10"
     d="m 253.07031,2.9375 v 81.75"
     id="path86" />
  <path
     fill-rule="evenodd"
     fill="#000000"
     fill-opacity="1"
     d="m 253.01171,84.75 h 0.96094 V 2.88281 h -0.96094 z m 0,0"
     id="path87" />
  <path
     fill="none"
     stroke-width="0.14"
     stroke-linecap="square"
     stroke-linejoin="round"
     stroke="#000000"
     stroke-opacity="1"
     stroke-miterlimit="10"
     d="m 2.941405,170.50781 h 39"
     id="path88" />
  <path
     fill-rule="evenodd"
     fill="#000000"
     fill-opacity="1"
     d="m 2.882815,171.41016 h 39.11718 v -0.96094 H 2.882815 Z m 0,0"
     id="path89" />
  <path
     fill-rule="evenodd"
     fill="#000000"
     fill-opacity="1"
     d="m 44.882815,172.36719 h 42.02343 v -2.87891 h -42.02343 z m 0,0"
     id="path90" />
  <path
     fill="none"
     stroke-width="0.14"
     stroke-linecap="square"
     stroke-linejoin="round"
     stroke="#000000"
     stroke-opacity="1"
     stroke-miterlimit="10"
     d="m 127.05078,87.6875 v 39.35938"
     id="path91" />
  <path
     fill-rule="evenodd"
     fill="#000000"
     fill-opacity="1"
     d="m 126.99218,127.10937 h 0.96094 V 87.62891 h -0.96094 z m 0,0"
     id="path92" />
  <path
     fill="none"
     stroke-width="0.14"
     stroke-linecap="square"
     stroke-linejoin="round"
     stroke="#000000"
     stroke-opacity="1"
     stroke-miterlimit="10"
     d="M 86.972655,170.50781 H 125.97265"
     id="path93" />
  <path
     fill-rule="evenodd"
     fill="#000000"
     fill-opacity="1"
     d="m 86.910155,171.41016 h 39.121085 v -0.96094 H 86.910155 Z m 0,0"
     id="path94" />
  <path
     fill-rule="evenodd"
     fill="#000000"
     fill-opacity="1"
     d="m 128.91015,172.36719 h 42.02734 v -2.87891 h -42.02734 z m 0,0"
     id="path95" />
  <path
     fill="none"
     stroke-width="0.14"
     stroke-linecap="square"
     stroke-linejoin="round"
     stroke="#000000"
     stroke-opacity="1"
     stroke-miterlimit="10"
     d="m 170.99218,170.50781 h 39"
     id="path96" />
  <path
     fill-rule="evenodd"
     fill="#000000"
     fill-opacity="1"
     d="m 170.93359,171.41016 h 39.11719 v -0.96094 h -39.11719 z m 0,0"
     id="path97" />
  <path
     fill-rule="evenodd"
     fill="#000000"
     fill-opacity="1"
     d="m 212.93359,172.36719 h 42 v -2.87891 h -42 z m 0,0"
     id="path98" />
  <path
     fill-rule="evenodd"
     fill="#000000"
     fill-opacity="1"
     d="m 41.999995,172.36719 h 2.88282 v -87.6211 h -2.88282 z m 0,0"
     id="path99" />
  <path
     fill="none"
     stroke-width="0.14"
     stroke-linecap="square"
     stroke-linejoin="round"
     stroke="#000000"
     stroke-opacity="1"
     stroke-miterlimit="10"
     d="m 43.023435,172.42969 v 39.35937"
     id="path100" />
  <path
     fill-rule="evenodd"
     fill="#000000"
     fill-opacity="1"
     d="m 42.960935,211.84766 h 0.96094 v -39.48047 h -0.96094 z m 0,0"
     id="path101" />
  <path
     fill="none"
     stroke-width="0.14"
     stroke-linecap="square"
     stroke-linejoin="round"
     stroke="#000000"
     stroke-opacity="1"
     stroke-miterlimit="10"
     d="m 2.941405,212.86719 h 39"
     id="path102" />
  <path
     fill-rule="evenodd"
     fill="#000000"
     fill-opacity="1"
     d="m 2.882815,213.76953 h 39.11718 v -0.96094 H 2.882815 Z m 0,0"
     id="path103" />
  <path
     fill-rule="evenodd"
     fill="#000000"
     fill-opacity="1"
     d="m 44.882815,214.73047 h 42.02343 v -2.88281 h -42.02343 z m 0,0"
     id="path104" />
  <path
     fill="none"
     stroke-width="0.14"
     stroke-linecap="square"
     stroke-linejoin="round"
     stroke="#000000"
     stroke-opacity="1"
     stroke-miterlimit="10"
     d="M 86.972655,212.86719 H 125.97265"
     id="path105" />
  <path
     fill-rule="evenodd"
     fill="#000000"
     fill-opacity="1"
     d="m 86.910155,213.76953 h 39.121085 v -0.96094 H 86.910155 Z m 0,0"
     id="path106" />
  <path
     fill-rule="evenodd"
     fill="#000000"
     fill-opacity="1"
     d="m 168.05078,172.36719 h 2.88281 v -45.26172 h -2.88281 z m 0,0"
     id="path107" />
  <path
     fill-rule="evenodd"
     fill="#000000"
     fill-opacity="1"
     d="m 128.91015,214.73047 h 42.02734 v -2.88281 h -42.02734 z m 0,0"
     id="path108" />
  <path
     fill-rule="evenodd"
     fill="#000000"
     fill-opacity="1"
     d="m 210.05078,172.36719 h 2.88281 V 87.625 h -2.88281 z m 0,0"
     id="path109" />
  <path
     fill="none"
     stroke-width="0.14"
     stroke-linecap="square"
     stroke-linejoin="round"
     stroke="#000000"
     stroke-opacity="1"
     stroke-miterlimit="10"
     d="m 253.07031,87.6875 v 81.74219"
     id="path110" />
  <path
     fill-rule="evenodd"
     fill="#000000"
     fill-opacity="1"
     d="m 253.01171,169.48828 h 0.96094 V 87.625 h -0.96094 z m 0,0"
     id="path111" />
  <path
     fill="none"
     stroke-width="0.14"
     stroke-linecap="square"
     stroke-linejoin="round"
     stroke="#000000"
     stroke-opacity="1"
     stroke-miterlimit="10"
     d="m 170.99218,212.86719 h 81"
     id="path112" />
  <path
     fill-rule="evenodd"
     fill="#000000"
     fill-opacity="1"
     d="m 170.93359,213.76953 h 81.11719 v -0.96094 h -81.11719 z m 0,0"
     id="path113" />
  <path
     fill="none"
     stroke-width="0.14"
     stroke-linecap="square"
     stroke-linejoin="round"
     stroke="#000000"
     stroke-opacity="1"
     stroke-miterlimit="10"
     d="m 2.941405,255.23047 h 39"
     id="path114" />
  <path
     fill-rule="evenodd"
     fill="#000000"
     fill-opacity="1"
     d="m 2.882815,256.12891 h 39.11718 v -0.96094 H 2.882815 Z m 0,0"
     id="path115" />
  <path
     fill-rule="evenodd"
     fill="#000000"
     fill-opacity="1"
     d="m 84.031245,214.73047 h 2.87891 v -87.625 h -2.87891 z m 0,0"
     id="path116" />
  <path
     fill-rule="evenodd"
     fill="#000000"
     fill-opacity="1"
     d="m 126.03124,214.73047 h 2.87891 v -84.7461 h -2.87891 z m 0,0"
     id="path117" />
  <path
     fill-rule="evenodd"
     fill="#000000"
     fill-opacity="1"
     d="m 44.882815,257.08984 h 84.023425 v -2.88281 H 44.882815 Z m 0,0"
     id="path118" />
  <path
     fill="none"
     stroke-width="0.14"
     stroke-linecap="square"
     stroke-linejoin="round"
     stroke="#000000"
     stroke-opacity="1"
     stroke-miterlimit="10"
     d="m 169.07031,172.42969 v 39.35937"
     id="path119" />
  <path
     fill-rule="evenodd"
     fill="#000000"
     fill-opacity="1"
     d="m 169.01171,211.84766 h 0.96094 v -39.48047 h -0.96094 z m 0,0"
     id="path120" />
  <path
     fill="none"
     stroke-width="0.14"
     stroke-linecap="square"
     stroke-linejoin="round"
     stroke="#000000"
     stroke-opacity="1"
     stroke-miterlimit="10"
     d="m 128.97265,255.23047 h 39.01953"
     id="path121" />
  <path
     fill-rule="evenodd"
     fill="#000000"
     fill-opacity="1"
     d="m 128.91015,256.12891 h 39.14453 v -0.96094 h -39.14453 z m 0,0"
     id="path122" />
  <path
     fill-rule="evenodd"
     fill="#000000"
     fill-opacity="1"
     d="m 170.93359,257.08984 h 42 v -2.88281 h -42 z m 0,0"
     id="path123" />
  <path
     fill="none"
     stroke-width="0.14"
     stroke-linecap="square"
     stroke-linejoin="round"
     stroke="#000000"
     stroke-opacity="1"
     stroke-miterlimit="10"
     d="m 212.99218,255.23047 h 39"
     id="path124" />
  <path
     fill-rule="evenodd"
     fill="#000000"
     fill-opacity="1"
     d="m 212.93359,256.12891 h 39.11719 v -0.96094 h -39.11719 z m 0,0"
     id="path125" />
  <path
     fill-rule="evenodd"
     fill="#000000"
     fill-opacity="1"
     d="m 41.999995,257.08984 h 2.88282 v -45.24218 h -2.88282 z m 0,0"
     id="path126" />
  <path
     fill="none"
     stroke-width="0.14"
     stroke-linecap="square"
     stroke-linejoin="round"
     stroke="#000000"
     stroke-opacity="1"
     stroke-miterlimit="10"
     d="m 85.050785,214.78906 v 39.35938"
     id="path127" />
  <path
     fill-rule="evenodd"
     fill="#000000"
     fill-opacity="1"
     d="m 84.992185,254.20703 h 0.96094 v -39.47656 h -0.96094 z m 0,0"
     id="path128" />
  <path
     fill="none"
     stroke-width="0.14"
     stroke-linecap="square"
     stroke-linejoin="round"
     stroke="#000000"
     stroke-opacity="1"
     stroke-miterlimit="10"
     d="m 127.05078,214.78906 v 39.35938"
     id="path129" />
  <path
     fill-rule="evenodd"
     fill="#000000"
     fill-opacity="1"
     d="m 126.99218,254.20703 h 0.96094 v -39.47656 h -0.96094 z m 0,0"
     id="path130" />
  <path
     fill-rule="evenodd"
     fill="#000000"
     fill-opacity="1"
     d="m 168.05078,257.08984 h 2.88281 v -42.35937 h -2.88281 z m 0,0"
     id="path131" />
  <path
     fill="none"
     stroke-width="0.14"
     stroke-linecap="square"
     stroke-linejoin="round"
     stroke="#000000"
     stroke-opacity="1"
     stroke-miterlimit="10"
     d="m 211.07031,172.42969 v 81.71875"
     id="path132" />
  <path
     fill-rule="evenodd"
     fill="#000000"
     fill-opacity="1"
     d="m 211.01171,254.20703 h 0.96094 v -81.83984 h -0.96094 z m 0,0"
     id="path133" />
  <g
     clip-path="url(#clip-0)"
     id="g134"
     transform="translate(-157.57812,-245.78125)">
    <path
       fill-rule="evenodd"
       fill="#000000"
       fill-opacity="1"
       d="m 157.57812,545.23047 h 2.88282 V 245.78125 h -2.88282 z m 0,0"
       id="path134" />
  </g>
  <path
     fill="none"
     stroke-width="0.14"
     stroke-linecap="square"
     stroke-linejoin="round"
     stroke="#000000"
     stroke-opacity="1"
     stroke-miterlimit="10"
     d="m 43.023435,257.14844 v 39.35937"
     id="path135" />
  <path
     fill-rule="evenodd"
     fill="#000000"
     fill-opacity="1"
     d="m 42.960935,296.57031 h 0.96094 v -39.48047 h -0.96094 z m 0,0"
     id="path136" />
  <path
     fill="none"
     stroke-width="0.14"
     stroke-linecap="square"
     stroke-linejoin="round"
     stroke="#000000"
     stroke-opacity="1"
     stroke-miterlimit="10"
     d="m 85.050785,257.14844 v 39.35937"
     id="path137" />
  <path
     fill-rule="evenodd"
     fill="#000000"
     fill-opacity="1"
     d="m 84.992185,296.57031 h 0.96094 v -39.48047 h -0.96094 z m 0,0"
     id="path138" />
  <path
     fill-rule="evenodd"
     fill="#000000"
     fill-opacity="1"
     d="m 126.03124,299.44922 h 2.87891 v -42.35938 h -2.87891 z m 0,0"
     id="path139" />
  <path
     fill="none"
     stroke-width="0.14"
     stroke-linecap="square"
     stroke-linejoin="round"
     stroke="#000000"
     stroke-opacity="1"
     stroke-miterlimit="10"
     d="m 169.07031,257.14844 v 39.35937"
     id="path140" />
  <path
     fill-rule="evenodd"
     fill="#000000"
     fill-opacity="1"
     d="m 169.01171,296.57031 h 0.96094 v -39.48047 h -0.96094 z m 0,0"
     id="path141" />
  <path
     fill-rule="evenodd"
     fill="#000000"
     fill-opacity="1"
     d="m 210.05078,299.44922 h 2.88281 v -42.35938 h -2.88281 z m 0,0"
     id="path142" />
  <path
     fill-rule="evenodd"
     fill="#000000"
     fill-opacity="1"
     d="m 252.05078,299.44922 h 2.88281 V 172.36719 h -2.88281 z m 0,0"
     id="path143" />
  <path
     fill-rule="evenodd"
     fill="#000000"
     fill-opacity="1"
     d="m 294.08203,299.44922 h 2.8789 V 2.87891 h -2.8789 z m 0,0"
     id="path144" />
  <g
     clip-path="url(#clip-1)"
     id="g145"
     transform="translate(-157.57812,-245.78125)">
    <path
       fill-rule="evenodd"
       fill="#000000"
       fill-opacity="1"
       d="m 160.46094,248.66016 h 294.07031 v -2.87891 H 160.46094 Z m 0,0"
       id="path145" />
  </g>
  <path
     fill="none"
     stroke-width="0.14"
     stroke-linecap="square"
     stroke-linejoin="round"
     stroke="#000000"
     stroke-opacity="1"
     stroke-miterlimit="10"
     d="M 170.99218,43.41016 H 294.02343"
     id="path146" />
  <path
     fill-rule="evenodd"
     fill="#000000"
     fill-opacity="1"
     d="M 170.93359,44.30859 H 294.07031 V 43.34766 H 170.93359 Z m 0,0"
     id="path147" />
  <path
     fill-rule="evenodd"
     fill="#000000"
     fill-opacity="1"
     d="M 170.93359,87.62891 H 296.95312 V 84.75 H 170.93359 Z m 0,0"
     id="path148" />
  <path
     fill="none"
     stroke-width="0.14"
     stroke-linecap="square"
     stroke-linejoin="round"
     stroke="#000000"
     stroke-opacity="1"
     stroke-miterlimit="10"
     d="m 212.99218,128.12891 h 81.03125"
     id="path149" />
  <path
     fill-rule="evenodd"
     fill="#000000"
     fill-opacity="1"
     d="m 212.93359,129.02734 h 81.14062 v -0.95703 h -81.14062 z m 0,0"
     id="path150" />
  <path
     fill="none"
     stroke-width="0.14"
     stroke-linecap="square"
     stroke-linejoin="round"
     stroke="#000000"
     stroke-opacity="1"
     stroke-miterlimit="10"
     d="m 254.99218,170.50781 h 39.03125"
     id="path151" />
  <path
     fill-rule="evenodd"
     fill="#000000"
     fill-opacity="1"
     d="m 254.93359,171.41016 h 39.14062 v -0.96094 h -39.14062 z m 0,0"
     id="path152" />
  <path
     fill="none"
     stroke-width="0.14"
     stroke-linecap="square"
     stroke-linejoin="round"
     stroke="#000000"
     stroke-opacity="1"
     stroke-miterlimit="10"
     d="m 254.99218,212.86719 h 39.03125"
     id="path153" />
  <path
     fill-rule="evenodd"
     fill="#000000"
     fill-opacity="1"
     d="m 254.93359,213.76953 h 39.14062 v -0.96094 h -39.14062 z m 0,0"
     id="path154" />
  <path
     fill="none"
     stroke-width="0.14"
     stroke-linecap="square"
     stroke-linejoin="round"
     stroke="#000000"
     stroke-opacity="1"
     stroke-miterlimit="10"
     d="m 254.99218,255.23047 h 39.03125"
     id="path155" />
  <path
     fill-rule="evenodd"
     fill="#000000"
     fill-opacity="1"
     d="m 254.93359,256.12891 h 39.14062 v -0.96094 h -39.14062 z m 0,0"
     id="path156" />
  <path
     fill-rule="evenodd"
     fill="#000000"
     fill-opacity="1"
     d="M 2.882815,299.44922 H 296.95312 v -2.87891 H 2.882815 Z m 0,0"
     id="path157" />
</svg>
